/* XPM */
static char *skin_cbuttons[] = {
/* columns rows colors chars-per-pixel */
"136 36 256 2",
"   c Gray0",
".  c #020202",
"X  c #040404",
"o  c #070707",
"O  c #090909",
"+  c #0b0b0b",
"@  c Gray5",
"#  c Gray6",
"$  c #151515",
"%  c #161616",
"&  c #181818",
"*  c #1b1b1b",
"=  c Gray11",
"-  c #1e1e1e",
";  c Gray13",
":  c #232323",
">  c #252525",
",  c #272727",
"<  c #272828",
"1  c #27292c",
"2  c #282828",
"3  c #2a2a2a",
"4  c #292a2a",
"5  c #292b2e",
"6  c #2a2c2e",
"7  c #2c2d2d",
"8  c #2f2f2f",
"9  c #2d2e2e",
"0  c #2a2d31",
"q  c #2d2f32",
"w  c #23313f",
"e  c #26323e",
"r  c #2f3031",
"t  c #2c3135",
"y  c #2b353f",
"u  c Gray19",
"i  c Gray20",
"p  c #313232",
"a  c #323536",
"s  c #343434",
"d  c Gray21",
"f  c #353636",
"g  c #343739",
"h  c #333638",
"j  c #373839",
"k  c #373a3c",
"l  c #30383f",
"z  c #393939",
"x  c Gray23",
"c  c #393a3a",
"v  c #383b3d",
"b  c #3a3c3d",
"n  c #3c3c3c",
"m  c #3e3e3e",
"M  c #3d3e3e",
"N  c #1f3e5d",
"B  c #223241",
"V  c #213345",
"C  c #233547",
"Z  c #243241",
"A  c #253442",
"S  c #263645",
"D  c #22374b",
"F  c #253749",
"G  c #27394a",
"H  c #24394d",
"J  c #293643",
"K  c #2d3741",
"L  c #2b3946",
"P  c #2a3a49",
"I  c #283b4c",
"U  c #2a3d4e",
"Y  c #2c3c4b",
"T  c #2f3f4e",
"R  c #2d3d4c",
"E  c #243b52",
"W  c #223e5a",
"Q  c #2a3f53",
"!  c #2c3f50",
"~  c #333c44",
"^  c #303f4e",
"/  c #3b3e40",
"(  c #3c3f41",
")  c #1d4165",
"_  c #1f456b",
"`  c #1d4269",
"'  c #1d4e77",
"]  c #194a73",
"[  c #1d4c7c",
"{  c #14507f",
"}  c #1e537e",
"|  c #27445f",
" . c #2f4153",
".. c #2d4051",
"X. c #2e4256",
"o. c #2c4358",
"O. c #30404f",
"+. c #35424f",
"@. c #36414a",
"#. c #3e4042",
"$. c #3f4244",
"%. c #39434d",
"&. c #3e4348",
"*. c #324251",
"=. c #334657",
"-. c #344453",
";. c #374656",
":. c #304254",
">. c #32475b",
",. c #374a5b",
"<. c #3a4754",
"1. c #384857",
"2. c #3d4a57",
"3. c #3a4a59",
"4. c #3a4d5e",
"5. c #274765",
"6. c #234461",
"7. c #22476a",
"8. c #23496d",
"9. c #2a4a69",
"0. c #2d4e6b",
"q. c #2b4963",
"w. c #204b71",
"e. c #22527a",
"r. c #24557d",
"t. c #414141",
"y. c #434343",
"u. c #444444",
"i. c Gray28",
"p. c #404245",
"a. c #444749",
"s. c #474a4c",
"d. c #45484a",
"f. c #494949",
"g. c Gray29",
"h. c #4c4c4c",
"j. c #4e4e4e",
"k. c #494c4e",
"l. c #424f5c",
"z. c #4b4e50",
"x. c #40505f",
"c. c #505050",
"v. c Gray32",
"b. c #555555",
"n. c #565656",
"m. c Gray35",
"M. c #5a5a5a",
"N. c Gray36",
"B. c #5f5f5f",
"V. c #606060",
"C. c #646464",
"Z. c #6d6d6d",
"A. c Gray48",
"S. c #0f5697",
"D. c #0e5497",
"F. c #0e5599",
"G. c #0e579c",
"H. c #0f5c93",
"J. c #0f5c94",
"K. c #0f5a9c",
"L. c #124d85",
"P. c #134f89",
"I. c #1a4f82",
"U. c #155180",
"Y. c #165382",
"T. c #175685",
"R. c #155086",
"E. c #13518a",
"W. c #15528a",
"Q. c #165689",
"!. c #14518c",
"~. c #16598a",
"^. c #185686",
"/. c #195088",
"(. c #1a5a8a",
"). c #1d5b8a",
"_. c #1c5c8c",
"`. c #105595",
"'. c #105799",
"]. c #105c93",
"[. c #125e95",
"{. c #105897",
"}. c #115a9a",
"|. c #105a9c",
" X c #075aab",
".X c #0b5ca6",
"XX c #085baa",
"oX c #095eaa",
"OX c #085dac",
"+X c #136096",
"@X c #116098",
"#X c #0b62a1",
"$X c #0963a4",
"%X c #0960ab",
"&X c #1167ae",
"*X c #126aaf",
"=X c #1369b0",
"-X c #146ab1",
";X c #1670b3",
":X c #1677bd",
">X c #1972b6",
",X c #1d77ba",
"<X c #225684",
"1X c #295a81",
"2X c #0e6dca",
"3X c #0d6dce",
"4X c #0c69c8",
"5X c #0e76c5",
"6X c #0d73c4",
"7X c #0e71cc",
"8X c #0e79ca",
"9X c #0e7bcf",
"0X c #0f7ccb",
"qX c #0c72d1",
"wX c #0976df",
"eX c #0e7ed1",
"rX c #0e79d1",
"tX c #1077c7",
"yX c #127ac9",
"uX c #117dcd",
"iX c #137dcc",
"pX c #0774e2",
"aX c #0776e7",
"sX c #0777e9",
"dX c #077de9",
"fX c #0876e3",
"gX c #087ae3",
"hX c #0979e4",
"jX c #097ce4",
"kX c #087de8",
"lX c #027ef7",
"zX c #007fff",
"xX c #017cfb",
"cX c Green",
"vX c #0e81d3",
"bX c #1380cf",
"nX c #1080d1",
"mX c #078deb",
"MX c #0986e2",
"NX c #0880e8",
"BX c #0888e3",
"VX c #0989e4",
"CX c #0a8ae5",
"ZX c #088be8",
"AX c #0281fa",
"SX c #0082ff",
"DX c #0081ff",
"FX c #0185fb",
"GX c #0086ff",
"HX c #0291f9",
"JX c Gray51",
"KX c #898989",
"LX c Gray57",
"PX c #929292",
"IX c #959595",
"UX c Gray60",
/* pixels */
"                                                                                                                                                                                                                                    & & & & & & & & & & & & & & & & & & & & $ + ",
"& & & & & & & & & & & & & & & & & & & & & +   & & & & & & & & & & & & & & & & & & & & & +   & & & & & & & & & & & & & & & & & & & & & +   & & & & & & & & & & & & & & & & & & & & & +   & & & & & & & & & & & & & & & & & & & & & + 7 , 2 2 2 2 2 2 2 2 7 7 7 7 7 7 7 7 8 8 i @ ",
"7 , 2 2 2 2 2 2 2 7 3 7 7 7 7 7 7 7 8 8 i @   7 , 2 2 2 2 2 2 2 3 3 7 7 7 7 7 7 7 8 8 i @   7 , 2 2 2 2 2 2 2 2 3 7 7 7 7 7 7 8 7 7 i @   7 , 2 2 2 2 2 7 2 2 2 7 7 7 7 7 7 7 8 7 i @   7 , 2 2 2 2 2 2 2 2 7 7 7 7 7 7 7 7 7 8 i @                                             ",
"                                                                                                                                                                                                                                    n.n.n.n.n.m.m.m.m.m.m.N.m.m.m.m.B.m.B.B.B.d ",
"n.n.n.n.n.m.m.m.m.m.m.m.m.m.m.m.B.m.m.B.m.x   n.n.n.n.n.m.m.m.m.m.m.m.m.m.m.m.B.N.B.N.N.d   n.n.n.n.n.m.m.m.m.B.m.m.m.m.m.m.m.m.B.B.B.x   n.n.n.n.n.m.m.m.m.m.m.m.m.m.m.m.B.m.N.B.B.x   n.n.n.n.n.m.m.m.m.m.m.B.N.m.N.m.B.m.N.B.B.d B.B.B.B.B.V.V.V.V.B.B.B.B.B.B.B.B.B.B.B.m.n.",
"B.B.B.B.B.V.V.V.V.V.V.V.V.B.V.B.B.B.B.B.m.n.  B.B.B.B.B.V.V.V.V.V.V.V.V.V.V.B.B.B.B.B.m.n.  B.B.B.B.B.V.V.V.V.V.V.V.V.V.V.B.B.B.B.N.m.n.  B.B.B.B.B.V.V.V.V.V.V.V.V.B.V.B.B.B.B.m.m.n.  B.B.B.B.B.V.V.B.V.V.V.V.V.V.V.B.B.B.B.B.m.n.n.x x x n n n n x x d d d d i i i i 7 2 , = ",
"n.x x x n x n n x x x x d d d d i i 7 2 , =   n.x x x n n n n n x x x x d d d i i 7 2 , =   n.x x x n n n n x x x x d d d d i i 7 2 , =   n.x x x n n n x x x x d d d d d i i 7 2 , =   n.x x x n n x x x x x x d d i i i i 7 2 , = Z.h.h.h.h.h.f.f.i.t./ +.k x x x x x d i 2 ; ",
"Z.h.h.h.f.f.f.f.f.i.i.t.n n n x x x d i 2 ;   Z.h.h.h.h.h.h.f.f.t.t.t.t.n n n x d d i 2 ;   Z.h.h.h.h.h.f.f.i.i.t.t.n n n x x x d i 2 ;   Z.h.h.h.h.h.f.i.i.t.n x x x n x x x d i 2 ;   Z.h.h.h.h.f.i.i.i.t.i.t.t.n n x x d d i 2 ; A.v.v.v.v.v.h.f.$.-.9.:X5.Y h d d x d i 7 ; ",
"A.v.v.v.c.z.l.s.i.i.n v *.O.v x x x d i 7 ;   A.v.v.v.v.v.v.h.a.1.-.v x n n v x x d i 7 ;   A.v.v.v.v.v.h.s.3.3.#./ *.*.v x x x d i 7 ;   A.v.v.v.v.v.h.i.;.=. .!  .T k x x x d i 7 ;   A.v.v.v.v.h.s.3.;.( n n #./ +.v x d d i 7 ; JXn.n.n.n.h.h.3.0.nXZXHXNX9X6.I a s i 7 2 ; ",
"JXn.n.v.h.x.,X3.n v o.e.vXuXY d d d i 7 2 ;   JXn.n.n.n.v.h.f.;.uXnXe.| a d x x d i 7 2 ;   JXn.n.n.n.v.f.3.bXuXT T uXuXT d d d i 7 2 ;   JXn.n.n.n.v.f.1.uXVXVXVXVX8XI d d d i 7 2 ;   JXn.n.n.v.f.3.nXnX<X9.g d T ;XT d d i 7 2 ; KXn.n.n.v.h.2.>XuXMXhXhXfXwX7X=XJ i 7 7 2 : ",
"KXn.n.v.h.4.iX>.^ e.eXmXHXgXF i i i i 7 2 ,   KXn.n.n.n.v.f.t. .VXFXdXeXw.I a i i i 7 2 ,   KXn.n.n.v.h.i.=.VXjXI G MXgXG i i i i 7 2 ,   KXn.n.n.v.h.i.:.VXGXDXDXDXfXF i i i i 7 2 ,   KXn.n.n.v.i.;.VXFXkXrX8.I E 5XI i i i 7 2 , LXn.n.n.h.f.&.0.8.7.) ) ) ) ) N 0 7 7 2 , , ",
"LXn.n.v.f.4.iX9.>XeXHXGXDXfXV 7 7 7 7 2 , ,   LXn.n.n.v.h.f.n  .VXDXzXlX7X=XJ 7 7 7 2 , ,   LXn.n.n.v.f.t.:.VXhXF C BXgXF 7 i 7 7 2 , ,   LXn.n.n.v.f.t. .VXDXzXzXzXpXV 7 7 7 7 2 , ,   LXn.n.v.h.y. .VXDXzXAXqX-X6.5XF 7 7 7 2 , , IXn.n.v.h.i.<.>XyXtXtX5X5X5X6X&Xe 2 2 2 , , ",
"IXn.v.h.f.,.yXX.Y 8.qXsXxXpXV 5 7 7 2 2 , ,   IXn.n.v.h.f.i.n U VXAXaX3X` F q 7 2 2 2 2 ,   IXn.n.v.h.f.t. .VXhXF C BXpXC 7 7 7 2 2 , ,   IXn.n.v.h.f.t. .VXDXzXzXzXpXV 3 7 7 2 2 , ,   IXn.n.v.f.t. .VXAXsX3X7.S H 5XF 2 2 2 2 , , IXv.v.h.f.i.$.*. .U I G F C S S 1 2 2 2 , , ",
"UXv.h.h.i.1.>X*.d r E I.qX4XA 2 2 2 2 2 , ,   UXv.v.h.f.i.i.n T yX3X/.E 6 3 7 3 2 2 2 , ,   UXv.v.h.f.i.n O.yX2XS S 8X2XA 2 3 2 2 2 , ,   UXv.v.h.f.i.n T 8XfXfXpXfX4XB 3 3 2 2 2 , ,   UXv.v.h.f.t.*.uX3X[ W 0 7 S *XA 2 2 2 2 , , UXV.f.f.i.t.n x d i i 7 7 2 2 2 2 2 2 2 7 , ",
"UXV.f.i.t.#.+.v d i 7 5 B B 5 2 2 2 2 2 7 ,   UXV.f.f.i.i.t.x h I S 5 3 3 3 3 3 2 2 2 8 ,   UXV.f.f.i.t.n k T I q 0 S A 5 2 2 2 2 2 7 ,   UXV.f.f.i.t.n j I F V V V B 5 2 3 2 2 2 7 ,   UXV.f.f.i.t.v T I q 7 8 7 6 A 5 2 2 2 2 7 , LXC.v.h.i.t.x d d i i 7 7 7 2 2 2 2 7 7 d 2 ",
"LXC.n.h.i.n d d d i 7 7 2 2 2 2 3 2 7 i d 2   LXC.n.h.i.n x d i i 7 7 7 7 3 3 3 2 7 8 d 2   LXC.n.h.i.n x d i i 7 7 2 2 2 2 2 5 7 7 d 2   LXC.n.h.i.n x d i 7 2 2 2 2 2 3 3 2 7 8 d 2   LXC.n.h.i.n d i i 8 7 8 7 7 2 2 2 2 7 i d 2 + + + + + X X X X                           ",
"+ @ + + + + X X X X                           @ + + + + X X X X                             @ @ + + + + + X X                             + + + + + X X X X X                           + + + + + + X X X X                                                                     ",
"X                                             X       X       X                             X                                             X               X X                           X           X                                   X + @ @ @ @ @ @ @ @ @ $ @ @ @ @ $ @ +   ",
"                                                                                                                                                                                                                                      + @ $ = ; ; , ; , , , , , , , , , , ; & X ",
"                                                                                                                                                                                                                                                                                ",
"    X + @ @ @ $ $ @ @ @ @ @ @ @ # # @ @ +         X + @ $ @ @ $ @ @ @ @ @ @ @ @ @ @ @ +         X + @ @ $ @ @ @ $ @ @ @ @ @ @ @ @ @ +         X + @ @ @ @ @ @ @ @ @ @ @ @ @ @ $ @ +         X + @ @ @ @ @ @ $ @ @ @ @ @ @ @ $ @ +   = 2 n f.v.n.n.m.m.m.m.m.m.m.m.m.m.m.m.v.i.$ ",
"  + @ $ = ; ; ; ; , , , , , , , , , , ; & X     + @ $ = ; ; ; ; , , , , , , , , , , ; & X     + @ $ = ; ; ; ; , , , , , , , 2 , , ; & X   X X $ $ = ; ; , ; , , , , , , , , , , ; & X   X X @ $ = ; ; , ; , , , , , , , , , , ; & X , d i.n.m.B.V.V.V.V.V.V.V.B.B.B.B.B.m.v.t.7 ",
"                                                                                                                                                                                                                                    + $ , i x n n n n x x d d d i d i i 7 , & + ",
"= 2 n f.v.n.n.m.m.m.m.m.m.m.m.m.m.m.m.v.i.$   = 2 n f.v.n.n.m.m.m.m.m.m.m.m.m.m.m.m.v.i.$   = 2 n f.v.n.n.m.m.m.m.m.m.m.m.m.m.m.m.v.i.$   = 2 n f.v.n.n.m.m.m.m.m.m.m.m.m.m.m.m.v.i.$   = 2 n f.v.n.n.m.m.m.m.m.m.m.m.m.m.m.m.v.i.$ $ ; d t.f.h.h.f.i.i.t.n n n x x x x i 2 & @ ",
", d i.n.m.B.V.V.V.V.V.V.V.V.V.B.B.B.m.v.t.7   , d i.n.m.B.V.V.V.V.V.V.V.V.V.B.B.B.m.v.t.7   , d i.n.m.B.V.V.V.V.V.V.V.V.V.B.B.B.m.v.t.7   , d i.v.m.B.V.V.V.V.V.V.V.V.V.B.B.B.m.v.t.7   , d i.v.m.B.V.V.V.V.V.V.V.V.V.B.B.B.m.v.t.7 * 2 n f.v.v.v.h.i.t.@.} ~ d x x x d i 2 = @ ",
"+ $ , i x n n n n n x x d d d d i i 7 , & +   + $ , i x n n n n x x x d d d d i i 7 , & +   + $ , i x n n n n x x x d d d d i i 7 , & +   + $ , i x n n n n x x x d d d d i i 2 , $ +   + $ , i x n n n n x x x x d d d i i 7 , & + = 2 n f.h.v.h.i.%.(.@X#X}.Q.K d s d i 2 * @ ",
"$ ; d t.f.h.f.f.h.f.i.t.t.n n n x x i 2 & @   $ ; d t.f.h.h.f.f.i.i.t.t.t.t.n x x i 2 & @   $ ; d t.f.h.h.f.f.i.i.t.t.n n n x x i 2 & @   $ : d t.f.h.h.f.i.i.t.n n n n n x x i 2 & @   $ ; d i.f.h.h.f.i.i.i.i.i.t.n n x d i 2 * @ ; 7 n f.v.h.f.r.(.[.}.'.'.`.R.] i i 7 , & @ ",
"& 2 n f.v.h.h.h.f.f.t.n x x n n x d i 2 = @   * 2 n f.v.v.v.h.f.i.t.n n n n n n x i 2 = @   & 2 n f.v.v.v.h.i.i.i.t.n x n n x x i 2 = @   * 2 n f.v.v.h.f.u.#.x x j x x x x x i 2 = @   & 2 n f.h.h.h.f.i.i.t.t.t.n n n x x i 2 = @ ; 7 n f.h.f.i.%.^ L A A A w A e 7 7 2 ; & @ ",
"= 7 n f.h.h.1Xf.i.t.~ Q ~.T.d x d d i 2 * @   = 7 n f.v.v.v.h.t.(.(.Q l d x x d d i , & @   = 2 n f.v.v.h.i.).).x x T.^.d d x d i 2 * @   = 3 n f.v.v.h.i.).+X[.[.[.T.d x d d i 2 = @   = 2 n h.h.h.f._.(.q.k x x x ' x d d i 2 & @ = 2 n i.f.f.i.e.^.^.Y.Y.Y.{ { ] 2 2 2 ; & @ ",
"; 7 n f.h.f.<Xp.n X.Q.J.$XS.7 i d i 7 , & @   ; 7 #.f.v.v.h.i.n [.oXK.Q.I i d d i 7 , & @   ; 7 n f.v.h.f.t.+X}.d i H.{.i i d i 7 , & @   ; 7 m f.v.h.f.n +X%X%XoXoXS.7 i d i 7 , & @   ; 7 n f.v.f.t.+XoX}.Q.U d a Y.i i i 7 , & @ = 2 x i.i.i.t.n x d i r 7 7 7 7 2 2 , ; & @ ",
"; 2 n f.f.i.).%.e.~.#XoXoXS.2 i i 8 2 : & @   ; 2 n f.h.h.f.t.x [.oXOX.XE.] i i i 2 ; & @   ; 7 n f.h.h.i.n [.}.r 7 H.S.7 7 i 7 2 : & @   ; 3 n f.h.h.i.x [.OXOXOXOXG.2 7 i 7 2 , & @   ; 7 n f.h.i.n +XOXOX.XW.' y Y.7 7 7 7 : & @ 7 ; i n t.t.n n d d d i 7 7 3 2 7 2 2 ; = @ ",
"= 2 n i.f.i.).#.d I W.G.XXS.2 7 7 7 2 ; & @   - 2 n i.h.f.f.t.d ].oXG.P.A 7 7 7 7 2 ; & @   = 2 n f.h.f.i.n [.}.7 7 H.S.7 7 8 7 2 ; & @   = 2 n i.h.f.i.x [.oXOXXX XS.2 7 7 7 2 ; & @   = 2 n i.f.i.n [.oXG.!.G 7 q Y.7 7 3 2 ; & @ 7 2 d t.i.n x d d i i i 7 7 7 3 2 2 2 2 ; @ ",
"= 2 x t.i.t.e.n x d t D E.L.2 7 7 2 , ; & @   = 2 x i.i.i.i.n d T.W.W 0 7 7 7 3 2 , ; & @   = 2 x i.i.i.t.x ^.W.i 7 Y.L.2 7 3 3 , ; & @   = 2 x i.f.i.t.x T.S.G.G.S.L.2 7 7 2 , ; & @   = 2 x i.i.t.n ^.W.W t 7 i 7 ] 7 2 2 , ; & @ cXcXcXcXcXcXcXcXcXcXcXcXcXcXcXcXcXcXcXcXcXcX",
"3 ; d n t.t.n n x d i 7 2 2 2 2 3 2 , : = @   3 ; i n t.t.t.n d i 7 7 7 7 7 3 3 2 , : = @   2 ; d n t.t.n x d i i 7 7 2 7 2 2 2 , , = @   2 ; i n t.t.n x i 7 2 2 2 2 3 2 2 2 2 ; = @   2 ; i n t.t.x d i i i i i 7 2 2 2 2 , , = @ cXcXcXcXcXcXcXcXcXcXcXcXcXcXcXcXcXcXcXcXcXcX",
"7 2 d t.t.n x d d d i 7 7 7 2 2 2 2 2 2 : #   7 2 d t.i.t.x d d i 7 7 7 7 7 2 2 2 3 2 , $   7 2 d t.i.m x d i i i 7 7 7 7 2 2 2 2 2 ; @   7 2 d t.i.t.x d i i 7 7 2 7 2 2 2 2 2 2 , $   7 2 d t.i.n x d i i i 7 7 7 2 2 3 3 3 2 ; @ cXcXcXcXcXcXcXcXcXcXcXcXcXcXcXcXcXcXcXcXcXcX",
"  X X + + o X X                                 X X o + X X X X X                             X X o + X X X X                               X X X + X X X   X                             X X + + X X X X                           cXcXcXcXcXcXcXcXcXcXcXcXcXcXcXcXcXcXcXcXcXcX"
};
