/* XPM */
static char *skin_playpaus[] = {
/* columns rows colors chars-per-pixel */
"42 9 24 1",
"  c #0a121a",
". c #0a141d",
"X c #0b1720",
"o c #0b1722",
"O c #0b1924",
"+ c #0a1c2d",
"@ c #0a2035",
"# c #0b2237",
"$ c #0b233b",
"% c #0d2841",
"& c #0d2c49",
"* c #0e3457",
"= c #0c345b",
"- c #0f3c66",
"; c #155fa2",
": c #1875c9",
"> c #1a7ace",
", c #1a7ed7",
"< c #1d86e4",
"1 c #1d8aee",
"2 c #1d94ff",
"3 c #2197ff",
"4 c #2498ff",
"5 c #2499ff",
/* pixels */
"   X@X                             X@+.   ",
"   $:*X   X$$O$$X  X$%%%$X         $,;&   ",
"   %21*X  $<<=<<$  $<333<$         %23:   ",
"   %341*X %33-33%  %34443%         $,;&   ",
"   %344>@ %33-33%  %34443%         X@+X$%%",
"   %341*X %33-33%  %34443%             <33",
"   %21*X  $<<=<<$  $<333<$             344",
"   $:*X   X$$O$$X  X$%%%$X             <33",
"   X@X                                X$%%"
};
