/* XPM */
static char * skin_nums_ex[] = {
"108 13 31 1",
" 	c None",
".	c #0A121A",
"+	c #0B1B29",
"@	c #1E92F6",
"#	c #2499FF",
"$	c #040E16",
"%	c #080E17",
"&	c #1D8FF5",
"*	c #239AFF",
"=	c #1A84E1",
"-	c #1770BE",
";	c #1C8DF3",
">	c #0D406E",
",	c #1262A8",
"'	c #082A48",
")	c #0A365C",
"!	c #197BD1",
"~	c #1F94FF",
"{	c #1779CE",
"]	c #0B2239",
"^	c #135C9D",
"/	c #0E3D68",
"(	c #051522",
"_	c #0A2845",
":	c #0B1C29",
"<	c #070D12",
"[	c #0A2034",
"}	c #1A83DF",
"|	c #0B2C4A",
"1	c #091A27",
"2	c #197ACF",
".+@####@+.......$+.%@####@+.%@####@+.+......+.+@####@%.+@####@%.%@####@+.+@####@+.+@####@+..................",
".&*====#-.......;-..>====#-..>====#-.=,....;-.=*===='..=*====)...>====#!.=*====#!.=*====#!..................",
".#=....#=.......#=.......#=.......#=.#=....#=.#=.......#=.............#=.#=....#=.#=....#=..................",
".#=....#=.......#=.......#=.......#=.#=....#=.#=.......#=.............#=.#=....#=.#=....#=..................",
".#=....#=.......#=.......#=.......#=.#=....#=.#=.......#=.............#=.#=....#=.#=....#=..................",
".~{....*!.......*!..]^^^^#!..]^^^^#!.~~^^^^#!.~~^^^^...~~^^^^.........*!.~~^^^^#!.@#^^^^#!..................",
"./(....>].......>]._*####;:.<~#####].[*#####].[*####;:./#####;:.......>]./######].[}#####|...........*####..",
".*=....*!.......*!.*~^^^^....]^^^^#!..]^^^^#!..1^^^^#!.~@^^^^#!.......*!.~@^^^^#!...^^^^#!..................",
".#}....#=.......#=.#}.............#=.......#=.......#=.#}....#=.......#=.##....#=.......#=..................",
".#}....#=.......#=.#}.............#=.......#=.......#=.#}....#=.......#=.##....#=.......#=..................",
".#}....#=.......#=.#}.............#=.......#=.......#=.#}....#=.......#=.##....#=.......#=..................",
".~*====#-.......;!.&*====)...>====#!.......;!..>====#!.&*====#!.......;!.=#====#!..>====#!..................",
".]*####2+.......$+.+~####=%.%~####@+.......$+.%~####@+.+@####@+.......$+.+@####@+.%@####@+.................."};
