/* XPM */
static char *skin_numbers[] = {
/* columns rows colors chars-per-pixel */
"99 13 35 1",
"  c #070d12",
". c #040e16",
"X c #080e17",
"o c #0a121a",
"O c #051522",
"+ c #091a27",
"@ c #0b1b29",
"# c #0b1c29",
"$ c #0a2034",
"% c #082338",
"& c #09233b",
"* c #0b2239",
"= c #0a223a",
"- c #0a2845",
"; c #082a48",
": c #0b2c4a",
"> c #0a365c",
", c #0e3d68",
"< c #0d406e",
"1 c #0e426f",
"2 c #135c9d",
"3 c #1262a8",
"4 c #1770be",
"5 c #1779ce",
"6 c #197acf",
"7 c #197bd1",
"8 c #1a83df",
"9 c #1a84e1",
"0 c #1c8df3",
"q c #1d8ff5",
"w c #1e92f6",
"e c #1f94ff",
"r c #1f97ff",
"t c #239aff",
"y c #2499ff",
/* pixels */
"o@wyyyyw@ooooooo.@oXwyyyyw@oXwyyyyw@o@oooooo@o@wyyyywXo@wyyyywXoXwyyyyw@o@wyyyyw@o@wyyyyw@ooooooooo",
"oqt9999y4ooooooo04oo<9999y4oo<9999y4o93oooo04o9t9999;oo9t9999>ooo<9999y7o9t9999y7o9t9999y7ooooooooo",
"oy9ooooy9oooooooy9oooooooy9oooooooy9oy9ooooy9oy9oooooooy9oooooooooooooy9oy9ooooy9oy9ooooy9ooooooooo",
"oy9ooooy9oooooooy9oooooooy9oooooooy9oy9ooooy9oy9oooooooy9oooooooooooooy9oy9ooooy9oy9ooooy9ooooooooo",
"oy9ooooy9oooooooy9oooooooy9oooooooy9oy9ooooy9oy9oooooooy9oooooooooooooy9oy9ooooy9oy9ooooy9ooooooooo",
"oe5oooot7ooooooot7oo*2222y7oo*2222y7oee2222y7oee2222oooee2222ooooooooot7oee2222y7owy2222y7ooooooooo",
"o,Ooooo<*ooooooo<*o-tyyyy0#o eyyyyy*o$tyyyyy*o$tyyyy0#o,yyyyy0#ooooooo<*o,yyyyyy*o$8yyyyy:ooooooooo",
"ot9oooot7ooooooot7ote2222oooo*2222y7oo*2222y7oo+2222y7oew2222y7ooooooot7oew2222y7ooo2222y7ooooooooo",
"oy8ooooy9oooooooy9oy8oooooooooooooy9oooooooy9oooooooy9oy8ooooy9oooooooy9oyyooooy9oooooooy9ooooooooo",
"oy8ooooy9oooooooy9oy8oooooooooooooy9oooooooy9oooooooy9oy8ooooy9oooooooy9oyyooooy9oooooooy9ooooooooo",
"oy8ooooy9oooooooy9oy8oooooooooooooy9oooooooy9oooooooy9oy8ooooy9oooooooy9oyyooooy9oooooooy9ooooooooo",
"oet9999y4ooooooo07oqt9999>ooo<9999y7ooooooo07oo<9999y7oqt9999y7ooooooo07o9y9999y7oo<9999y7ooooooooo",
"o*tyyyy6@ooooooo.@o@eyyyy9XoXeyyyyw@ooooooo.@oXeyyyyw@o@wyyyyw@ooooooo.@o@wyyyyw@oXwyyyyw@ooooooooo"
};
