/* XPM */
static char *skin_monoster[] = {
/* columns rows colors chars-per-pixel */
"58 24 70 1",
"  c Gray0",
". c #04070c",
"X c #090e12",
"o c #03141b",
"O c #0a121a",
"+ c #061b20",
"@ c #0b1620",
"# c #082329",
"$ c #09262b",
"% c #08262e",
"& c #0b233b",
"* c #0c253b",
"= c #092930",
"- c #0a2e37",
"; c #0d2841",
": c #093140",
"> c #0a3143",
", c #093346",
"< c #0a3344",
"1 c #0a3346",
"2 c #0a3445",
"3 c #0a3549",
"4 c #0a3b54",
"5 c #0b3d53",
"6 c #093d5b",
"7 c #0a3d59",
"8 c #0a4261",
"9 c #0b4362",
"0 c #0b4566",
"q c #0c4463",
"w c #0d436d",
"e c #0d4b6e",
"r c #0e4b74",
"t c #0e4f7b",
"y c #11568b",
"u c #115b90",
"i c #12609e",
"p c #1665ab",
"a c #1771c1",
"s c #1874c9",
"d c #1875c9",
"f c #1a77cb",
"g c #1a7dd5",
"h c #1b7dda",
"j c #1c82de",
"k c #1c85e3",
"l c #1d86e4",
"z c #1c87e9",
"x c #1d8aeb",
"c c #1c89ec",
"v c #1d8aee",
"b c #1f90f3",
"n c #1f91f8",
"m c #1e91fa",
"M c #1f92fb",
"N c #1d94ff",
"B c #2094fd",
"V c #2095ff",
"C c #2195ff",
"Z c #2096ff",
"A c #2197ff",
"S c #2297ff",
"D c #2198ff",
"F c #2398ff",
"G c #2399ff",
"H c #239aff",
"J c #2498ff",
"K c #2499ff",
"L c #249bff",
"P c #259bff",
/* pixels */
"@&;;;;;;;;;;;;;;;;;;;;;;;;;&@OOOO@&;;;;;;;;;;;;;;;;;;;&@OO",
"*lAAAAAAAAAAAAAAAAAAAAAAAAAl*OOOO*lAAAAAAAAAAAAAAAAAAAl*OO",
";AFFFAKFAFKAAFKFAAKFAFKFFFFA;OOOO;AKKAKAKFFFKAKAKFFFFKA;OO",
";AFi7um8%8v3,0v3,rb3,0mi7iFA;OOOO;AKA8g8mi7imqhqmi7iFKA;OO",
";AA7fAFz:zN:fAN:p4k:fAA5f5AA;OOOO;AKA=:=k5f5k-w-k5f5AKA;OO",
";AFi7iFA3AA%7AA%,yv%7AA3j3AA;OOOO;AKA$+$j3j3j#o#j3j3AKA;OO",
";AKAf7AA3AA:fAN2ftz:fAA5f5AA;OOOO;AKA2a2k5f5k-w-k5f5AKA;OO",
";AAu7iFA0AA3,0v0xex3,0mi6uFA;OOOO;AKA0z0mi7imqhqNu7iFKA;OO",
";AKAFFFKAKKFAFKAKAKFAFKFFFFA;OOOO;AKKAKAKFFFKAKAKFFFFKA;OO",
"*lAAAAAAAAAAAAAAAAAAAAFAAAAl*OOOO*lAAAAAFAAAAAAAAAAAAAl*OO",
"@&;;;;;;;;;;;;;;;;;;;;;;;;;&@OOOO@&;;;;;;;;;;;;;;;;;;;&@OO",
"OOOOOOOOOOOOOOOOOOOOOOOOOOOOOOOOOOOOOOOOOOOOOOOOOOOOOOOOOO",
"OOOOOOOOOOOOOOOOOOOOOOOOOOOOOOOOOOOOOOOOOOOOOOOOOOOOOOOOOO",
"O                           OOOOOO                     OOO",
"O                           OOOOOO                     OOO",
"O  .OX OOO OOO OOX OOO .O.  OOOOOO   O O .O. O O .O.   OOO",
"O  O    O  O   O O O   O O  OOOOOO   OXO O O O.O O O   OOO",
"O  .O.  O  OO  OO. OO  O O  OOOOOO   OOO O O OOO O O   OOO",
"O    O  O  O   O X O   O O  OOOOOO   O O O O O.O O O   OOO",
"O  XO.  O  OOO O O OOO .O.  OOOOOO   O O .O. O O .O.   OOO",
"O                           OOOOOO                     OOO",
"O                           OOOOOO                     OOO",
"OOOOOOOOOOOOOOOOOOOOOOOOOOOOOOOOOOOOOOOOOOOOOOOOOOOOOOOOOO",
"OOOOOOOOOOOOOOOOOOOOOOOOOOOOOOOOOOOOOOOOOOOOOOOOOOOOOOOOOO"
};
