/* XPM */
static char *skin_posbar[] = {
/* columns rows colors chars-per-pixel */
"307 10 245 2",
"   c Gray0",
".  c #070707",
"X  c #000404",
"o  c Gray5",
"O  c Gray6",
"+  c Gray4",
"@  c #020c0e",
"#  c #04171d",
"$  c #111111",
"%  c Gray7",
"&  c Gray8",
"*  c #1b1b1b",
"=  c #191919",
"-  c #1e1e1e",
";  c #051f27",
":  c #06242e",
">  c #09262e",
",  c #08282e",
"<  c #092730",
"1  c #0a2a35",
"2  c #0a2a34",
"3  c #0a2a3a",
"4  c #0b2c3e",
"5  c #0b2c39",
"6  c #1e343b",
"7  c Gray13",
"8  c #232323",
"9  c Gray14",
"0  c #232627",
"q  c #232d2f",
"w  c Gray17",
"e  c #2d2d2d",
"r  c Gray18",
"t  c #313131",
"y  c Gray21",
"u  c #313b3e",
"i  c #393939",
"p  c #0b2c40",
"a  c #0d3042",
"s  c #0e3145",
"d  c #0f3249",
"f  c #10334b",
"g  c #12354d",
"h  c #1b3a47",
"j  c #1c3a45",
"k  c #1b3b4a",
"l  c #1d3d4e",
"z  c #1c3c49",
"x  c #133651",
"c  c #153a56",
"v  c #133852",
"b  c #173d5a",
"n  c #173d5d",
"m  c #1d3f52",
"M  c #183f5f",
"N  c #1a3f60",
"B  c #2a3946",
"V  c #2b3c4a",
"C  c #2b3d4e",
"Z  c #2a3948",
"A  c #2a3e52",
"S  c #1e4156",
"D  c #1e4053",
"F  c #1a405f",
"G  c #1f435a",
"H  c #1f435e",
"J  c #1f445d",
"K  c #1f4458",
"L  c #1b4262",
"P  c #1d4466",
"I  c #1d4363",
"U  c #1f476a",
"Y  c #165a6c",
"T  c #19556a",
"R  c #165870",
"E  c #115e7a",
"W  c #17627c",
"Q  c #20455e",
"!  c #394752",
"~  c #394855",
"^  c #204561",
"/  c #204666",
"(  c #214668",
")  c #20486a",
"_  c #21496d",
"`  c #21496e",
"'  c #214a70",
"]  c #224c73",
"[  c #234d76",
"{  c Gray25",
"}  c Gray27",
"|  c #4e4e4e",
" . c #494949",
".. c #535353",
"X. c #5f5f5f",
"o. c Gray35",
"O. c #485861",
"+. c #556064",
"@. c #56636d",
"#. c #56737e",
"$. c #5d727b",
"%. c Gray38",
"&. c #647074",
"*. c #65737b",
"=. c #6b7477",
"-. c #727272",
";. c #717473",
":. c #0f6585",
">. c #0f678b",
",. c #0f6888",
"<. c #116684",
"1. c #16668a",
"2. c #106885",
"3. c #116a8c",
"4. c #116a91",
"5. c #116e97",
"6. c #116f9a",
"7. c #186d9a",
"8. c #127197",
"9. c #12729b",
"0. c #12739e",
"q. c #1375a4",
"w. c #1374a2",
"e. c #1376a9",
"r. c #1772a9",
"t. c #1478a6",
"y. c #1579af",
"u. c #1379ac",
"i. c #137ab1",
"p. c #157db6",
"a. c #147cb2",
"s. c #157fbb",
"d. c #197ab7",
"f. c #577783",
"g. c #567785",
"h. c #577886",
"j. c #5a7a89",
"k. c #5d7d8d",
"l. c #747f86",
"z. c #1682bd",
"x. c #1784c3",
"c. c #1582c2",
"v. c #1787c9",
"b. c #1688cb",
"n. c #1789ce",
"m. c #1a80c5",
"M. c #178bd5",
"N. c #1689d0",
"B. c #178edb",
"V. c #198dd3",
"C. c #198ed9",
"Z. c #1b85d3",
"A. c #1992de",
"S. c #1c8fe4",
"D. c #1992e2",
"F. c #1a95e6",
"G. c #1992e6",
"H. c #1b97ee",
"J. c #1a95e9",
"K. c #1b98ea",
"L. c #1d96f1",
"P. c #1c9bf3",
"I. c #1b9bf8",
"U. c #1e9bff",
"Y. c #1e9eff",
"T. c #1c9dfa",
"R. c #1fa0fe",
"E. c #219bff",
"W. c #229aff",
"Q. c #209dff",
"!. c #229dff",
"~. c #229eff",
"^. c #249aff",
"/. c #269cff",
"(. c #5f8192",
"). c #628496",
"_. c #618293",
"`. c #64879a",
"'. c #67899c",
"]. c #688b9e",
"[. c #758286",
"{. c #72929e",
"}. c #75929b",
"|. c #7e959d",
" X c #678ba0",
".X c #6a8ea4",
"XX c #698da2",
"oX c #6d92aa",
"OX c #7596a3",
"+X c #7095ae",
"@X c #7698a5",
"#X c #7a9cab",
"$X c #7296b1",
"%X c #759ab5",
"&X c #779dba",
"*X c #7d9eb0",
"=X c #7a9fbe",
"-X c #789db8",
";X c #7fa1b3",
":X c #7ba1be",
">X c #7ea6c5",
",X c #7da4c2",
"<X c #838484",
"1X c #838e94",
"2X c #8c969a",
"3X c Gray59",
"4X c #979a9c",
"5X c #80a2b4",
"6X c #83a5b6",
"7X c #85a7ba",
"8X c #85a8bd",
"9X c #88abbf",
"0X c #82aacb",
"qX c #8aaec4",
"wX c #86add1",
"eX c #8bb0c7",
"rX c #8eb3c9",
"tX c #8fb4cb",
"yX c #8ab2d6",
"uX c #8db6dd",
"iX c #8cb4d9",
"pX c #91b5cd",
"aX c #93b7d1",
"sX c #96bad5",
"dX c #94b8d2",
"fX c #98bdd7",
"gX c #9abed9",
"hX c #91bae2",
"jX c #94bee5",
"kX c #94bfe9",
"lX c #9cc2df",
"zX c #9bc0dd",
"xX c #96c1ea",
"cX c #9ec4e2",
"vX c #9dc7ed",
"bX c #9bc4ec",
"nX c #9fc8ee",
"mX c #a0c6e3",
"MX c #a1c7ec",
"NX c #a2c8e6",
"BX c #a4cbeb",
"VX c #a5cbef",
"CX c #a5cdee",
"ZX c #a2cbed",
"AX c #a8d0f0",
/* pixels */
"r r r r r r r r r r r r r r r r r r r r r r r r r r r r r r r r r r r r r r r r r r r r r r r r r r r r r r r r r r r r r r r r r r r r r r r r r r r r r r r r r r r r r r r r r r r r r r r r r r r r r r r r r r r r r r r r r r r r r r r r r r r r r r r r r r r r r r r r r r r r r r r r r r r r r r r r r r r r r r r r r r r r r r r r r r r r r r r r r r r r r r r r r r r r r r r r r r r r r r r r r r r r r r r r r r r r r r r r r r r r r r r r r r r r r r r r r r r r r r r r r r r r r r r r r r r r r r r r r r r r r r r r r r r r r r r r r r r r r r r r r r r r r r r r r r r r r r r r r r r r r r r r r r r ",
"r r r r r r r r r r r r r r r r r r r r r r r r r r r r r r r r r r r r r r r r r r r r r r r r r r r r r r r r r r r r r r r r r r r r r r r r r r r r r r r r r r r r r r r r r r r r r r r r r r r r r r r r r r r r r r r r r r r r r r r r r r r r r r r r r r r r r r r r r r r r r r r r r r r r r r r r r r r r r r r r r r r r r r r r r r r r r r r r r r r r r r r r r r r r r r r r r r r r r r r r r r r r r r r r r r r r r r r r r r r r r r r r r r r r r r r r r r r r r r r r r r r r r r r r r r r r r r r r r r r r r r r r r r r r r r r r r r r r r r r r r r r r r r r r r r r r r r r r r r r r r r r r r r r ",
"r r r r r r r r r r r r r r r r r r r r r r r t r r r r r r r r r r r r r r r r r r r r r r r r r r r r r r r r r r r r r r r r r r r r r r r r r r r r r r r r r r r r r r r r r r r r r r r r r r r r r r r r r r r r r r r r r r r r r r r r r r r r r r r r r r r r r r r r r r r r r r r r r r r r r r r r r r r r r r r r r r r r r r r r r r r r r r r r r r r r r r r r r r r r r r r r r r r r r r r r r r r r r r r r r r r r r r r r r r r r r r r r r r r r r r r r r r r r r r r r r r r r r r r r * o  .-.X.| { t 8 $ $ & & * * * * - - 8 8 t } o...| 8 o * * * o  .-.X.| { t 8 $ $ & & * * * * - - 8 8 y } o...| 8 o * ",
"9 0 q 6 j j j h h h z z k z z z k k k k k m k k k k m m m k m m m m D D D D D m D D D m D D G K D D G G G G G G J Q Q J J H H Q Q Q H H H I ^ ^ ^ ^ ^ ^ / / / / / / / / / / / / ) ) ) ) ( ) ) ) ) _ _ _ _ _ _ _ _ _ ' ' ' ' ] ' ] ] ' ' ] ] ] ] [ [ [ [ [ [ [ ] ] ] ] ] ] ] ' ' ' ' ' ' ' _ _ _ _ U U U U U U P P P P P P P L L L N L L M F F F F n b b b b b b c c c c c c c x x v v x x x x g g g f f f f f d d d d s s s s s s s a a a a p 4 4 4 4 4 3 3 3 3 3 5 1 1 1 1 1 1 1 1 2 2 2 < > > > : , > ; # @ X o u &.1Xl.*.@.O.~ Z V C C A A A C C Z Z B ! O.@.*.[.+.u o o o y -.3X<X-.%...i r r r r r r r r r r r r i ..%.-.<X%.y o ",
"..T R E <.2.,.3.3.>.3.3.3.4.4.4.8.8.5.9.0.0.0.0.w.w.q.q.e.e.e.e.e.y.y.i.a.p.p.p.p.z.s.s.z.c.c.c.x.x.v.b.b.v.n.V.N.M.M.M.M.C.B.B.A.B.A.D.F.F.G.J.K.J.J.H.H.P.L.P.P.T.I.I.T.R.T.Y.Y.Y.Y.R.Y.U.Y.Y.Q.Y.Q.Q.Q.Q.U.Q.Q.Q.Q.U.E.E.Q.Q.E.E.Q.E.E./.E.^.^././.^.^.^././.^.^.E.E.E.E./.E.E.Q.Q.Q.E.U.Q.Q.Q.Q.U.Q.Q.Q.Q.Y.Q.Y.Y.U.Y.R.Y.Y.Y.Y.T.R.T.I.I.T.P.P.P.P.H.H.H.H.K.G.J.F.F.D.D.D.A.A.B.B.C.C.M.M.N.N.V.n.b.b.v.v.x.x.c.c.z.z.s.z.p.p.p.p.i.i.y.y.u.u.e.e.e.t.q.w.w.0.0.0.6.9.6.5.9.8.4.4.3.3.3.>.3.3.:.<.:.E R T   Y W 1.7.r.d.m.Z.S.L.E.E.E.^.E.Q.E.L.S.Z.m.d.r.7.1.W Y       * i  .{ i t 9 - &                                       ",
"<X4X2X|.}.{.{.{.{.{.OXOX@X@X@X@X#X#X#X#X#X#X#X#X*X*X;X;X5X5X5X5X6X6X7X7X8X8X8X9X9X9XqXqXqXqXeXrXqXtXtXtXpXpXpXpXaXaXsXdXsXsXsXsXfXgXgXgXzXlXlXlXcXcXmXmXmXNXcXNXBXBXBXCXCXCXCXAXVXVXCXCXCXCXCXZXCXZXZXZXZXMXZXvXZXnXnXZXvXvXvXvXvXbXbXbXbXxXxXxXxXxXxXxXxXkXkXjXjXjXjXjXhXhXhXhXhXuXuXuXuXiXiXiXyXyXyXyXyXyXwXwXwXwX0X0X0X0X0X0X0X0X0X>X0X>X>X>X>X,X,X:X=X=X:X:X=X&X-X-X-X-X%X%X%X%X$X$X$X+X+X+X+X+XoXoXoXoXoXoXoX.XXX.XXXXXXX X].'.'.'.'.'.`.`.`.).).).)._._.(.(.(.k.k.k.k.k.j.j.j.j.j.h.h.g.f.f.f.f.#.#.$.=.;.o u &.1Xl.*.@.O.~ Z Z C C A A A C C V Z B ! O.@.*.[.+.u o o o y -.3X<X-.%...{ r r r r r r r r r r r r { ..%.-.<X%.y o ",
"r r r r r r r r r r r r r r r r r r r r r r r r r r r r r r r r r r r r r r r r r r r r r r r r r r r r r r r r r r r r r r r r r r r r r r r r r r r r r r r r r r r r r r r r r r r r r r r r r r r r r r r r r r r r r r r r r r r r r r r r r r r r r r r r r r r r r r r r r r r r r r r r r r r r r r r r r r r r r r r r r r r r r r r r r r r r r r r r r r r r r r r r r r r r r r r r r r r r r r r r r r r r r r r r r r r r r r r r r r r r r r r r r r r r r r r r r r r r r r r r r r r r r r r r * o  .-.X.| { t 8 $ $ $ $ $ $ $ $ $ $ o . + o o o +   o * * * o  .-.X.| { t 8 $ $ $ $ $ $ $ $ $ $ o . + o o o +   o * ",
"r r r r r r r r r r r r r r r r r r r r r r r r r r r r r r r r r r r r r r r r r r r r r r r r r r r r r r r r r r r r r r r r r r r r r r r r r r r r r r r r r r r r r r r r r r r r r r r r r r r r r r r r r r r r r r r r r r r r r r r r r r r r r r r r r r r r r r r r r r r r r r r r r r r r r r r r r r r r r r r r r r r r r r r r r r r r r r r r r r r r r r r r r r r r r r r r r r r r r r r r r r r r r r r r r r r r r r r r r r r r r r r r r r r r r r r r r r r r r r r r r r r r r r r r 9 * & $ $ $ $ $ $ $ $ $ $ $ $ $ $ $ $ $ $ $ $ $ $ $ & * 9 9 9 * & $ $ $ $ $ $ $ $ $ $ $ $ $ $ $ $ $ $ $ $ $ $ $ & * 9 ",
"r r r r r r r r r r r r r r r r r r r r r r r r r r r r r r r r r r r r r r r r r r r r r r r r r r r r r r r r r r r r r r r r r r r r r r r r r r r r r r r r r r r r r r r r r r r r r r r r r r r r r r r r r r r r r r r r r r r r r r r r r r r r r r r r r r r r r r r r r r r r r r r r r r r r r r r r r r r r r r r r r r r r r r r r r r r r r r r r r r r r r r r r r r r r r r r r r r r r r r r r r r r r r r r r r r r r r r r r r r r r r r r r r r r r r r r r r r r r r r r r r r r r r r r r w 9 8 8 8 8 8 - - 8 8 - 8 8 - 8 8 8 8 - 8 8 8 8 8 8 8 9 w w w 9 8 8 8 8 8 8 - 8 8 - 8 8 8 - 8 8 8 8 8 8 8 8 8 - 8 8 w ",
"r r r r r r r r r r r r r r r r r r r r r r r r r r r r r r r r r r r r r r r r r r r r r r r r r r r r r r r r r r r r r r r r r r r r r r r r r r r r r r r r r r r r r r r r r r r r r r r r r r r r r r r r r r r r r r r r r r r r r r r r r r r r r r r r r r r r r r r r r r r r r r r r r r r r r r r r r r r r r r r r r r r r r r r r r r r r r r r r r r r r r r r r r r r r r r r r r r r r r r r r r r r r r r r r r r r r r r r r r r r r r r r r r r r r r r r r r r r r r r r r r r r r r r r r r w w w w w w w w w w w w w w w w w w w w w w w w w w w r r r w w w w w w w w w w w w w w w w w w w w w w w w w w w r "
};
