/* XPM */
static char *skin_shufrep[] = {
/* columns rows colors chars-per-pixel */
"92 85 231 2",
"   c Gray0",
".  c #000102",
"X  c #010203",
"o  c Gray1",
"O  c #060606",
"+  c #02070e",
"@  c #000807",
"#  c #02080c",
"$  c #040a0f",
"%  c Gray3",
"&  c #090a0a",
"*  c Gray4",
"=  c #0b0b0d",
"-  c #0b0c0d",
";  c #0c0d0d",
":  c #0d0e0e",
">  c Gray6",
",  c #030a10",
"<  c #040b11",
"1  c #060b10",
"2  c #020c18",
"3  c #091015",
"4  c #0b1015",
"5  c #0c1017",
"6  c #101010",
"7  c #111112",
"8  c #131313",
"9  c Gray8",
"0  c #161616",
"q  c #12171d",
"w  c #13181f",
"e  c #191919",
"r  c Gray10",
"t  c #1b1c1c",
"y  c #1d1d1d",
"u  c #1c1d1e",
"i  c #1c1e1f",
"p  c Gray12",
"a  c #02192d",
"s  c #0c1824",
"d  c #061b32",
"f  c #071d31",
"g  c #041c30",
"h  c #081e34",
"j  c #1f1f21",
"k  c #07233d",
"l  c #0a2035",
"z  c #082432",
"x  c #0c2037",
"c  c #0d2236",
"v  c #0a253f",
"b  c #0d2438",
"n  c #0e2439",
"m  c #0a2a3b",
"M  c #1f2021",
"N  c #1c2127",
"B  c #12293d",
"V  c #152b3f",
"C  c #202020",
"Z  c #202122",
"A  c #232323",
"S  c #202224",
"D  c Gray14",
"F  c #272727",
"G  c #262728",
"H  c #272828",
"J  c #282828",
"K  c Gray17",
"L  c #2b2c2c",
"P  c #2d2d2d",
"I  c #2c2d2e",
"U  c #2d2e2f",
"Y  c Gray18",
"T  c #232e38",
"R  c #282d32",
"E  c #2a2e33",
"W  c #27323d",
"Q  c #2a3035",
"!  c #2f3132",
"~  c #2a353f",
"^  c Gray19",
"/  c #323232",
"(  c #323335",
")  c #343434",
"_  c #353637",
"`  c Gray21",
"'  c #333538",
"]  c #34393e",
"[  c #393939",
"{  c #3a3a3a",
"}  c #383a3c",
"|  c #3b3d3f",
" . c #3c3c3c",
".. c #3e3e3e",
"X. c #092640",
"o. c #0a2c41",
"O. c #0c2a48",
"+. c #0e2f4f",
"@. c #0e314d",
"#. c #0e3153",
"$. c #0a3d59",
"%. c #112c45",
"&. c #132e48",
"*. c #182d43",
"=. c #182e42",
"-. c #1b2f45",
";. c #15314c",
":. c #17324d",
">. c #103354",
",. c #153654",
"<. c #143656",
"1. c #0c3861",
"2. c #0b3e6b",
"3. c #3d3e41",
"4. c #393d41",
"5. c #094164",
"6. c #15477a",
"7. c #3f4144",
"8. c #31475c",
"9. c #214161",
"0. c #414141",
"q. c #434343",
"w. c #404245",
"e. c #444444",
"r. c Gray28",
"t. c #424548",
"y. c #42464b",
"u. c #494949",
"i. c Gray29",
"p. c Gray30",
"a. c #4e4e4e",
"s. c #515151",
"d. c Gray32",
"f. c #525557",
"g. c #565656",
"h. c #585858",
"j. c #5a5a5a",
"k. c #5d5d5d",
"l. c Gray37",
"z. c #595d63",
"x. c #5f6060",
"c. c Gray38",
"v. c #616263",
"b. c Gray39",
"n. c #636464",
"m. c #656565",
"M. c #646566",
"N. c Gray40",
"B. c #666768",
"V. c #676868",
"C. c #686868",
"Z. c #69696a",
"A. c #6a6a6a",
"S. c #6b6c6c",
"D. c #6a6c6e",
"F. c #6f6f6f",
"G. c #6c6c6c",
"H. c #6a747f",
"J. c #717171",
"K. c #707173",
"L. c Gray45",
"P. c Gray46",
"I. c #7c7c7c",
"U. c #025698",
"Y. c #035a9e",
"T. c #055b9b",
"R. c #04599e",
"E. c #065d9d",
"W. c #085c9d",
"Q. c #194f87",
"!. c #0655a1",
"~. c #095aa3",
"^. c #0e608e",
"/. c #1470b8",
"(. c #006fc1",
"). c #0069c8",
"_. c #036aca",
"`. c #046dcb",
"'. c #076ec8",
"]. c #0170c2",
"[. c #0373c4",
"{. c #1b6cc4",
"}. c #1874c6",
"|. c #267bcd",
" X c #456687",
".X c #476889",
"XX c #496d90",
"oX c #6f7a86",
"OX c #30ff32",
"+X c #1584c5",
"@X c #1a83df",
"#X c #1892dc",
"$X c #1a84e1",
"%X c #1c85e3",
"&X c #1c8cee",
"*X c #1d94ff",
"=X c #2298ff",
"-X c #209eff",
";X c #2499ff",
":X c #269cff",
">X c #2d94ff",
",X c #339bff",
"<X c #389cff",
"1X c #608ebc",
"2X c #8b8b8b",
"3X c Gray56",
"4X c Gray55",
"5X c #909090",
"6X c #959595",
"7X c #979797",
"8X c #a5a5a5",
"9X c #aeaeae",
"0X c #b4b4b4",
"qX c Gray73",
"wX c Gray76",
"eX c #c5c5c5",
"rX c #c6c6c6",
"tX c #cbcbcb",
"yX c #cdcdcd",
"uX c #cecece",
"iX c Gray82",
"pX c #d2d2d2",
"aX c Gray83",
"sX c #d5d5d6",
"dX c Gray84",
"fX c #d8d8d8",
"gX c #d9d9da",
"hX c #d9dada",
"jX c #dadada",
"kX c #dddddd",
"lX c #eaeaea",
/* pixels */
"                                                        C C y C C y y C y C C y C C y C C y   O                                                       OXOXOXOXOXOXOXOXOXOXOXOXOXOXOXOXOX",
"  9 9 9 9 9 9 9 9 9 9 9 9 9 9 9 9 9 9 9 9 9 9 9 9 9 9 O C D D C C D D D D C C D C D D C C D   C 9 9 9 9 9 9 9 9 9 9 9 9 9 9 9 9 9 9 9 9 9 9 9 9 9 9   OXOXOXOXOXOXOXOXOXOXOXOXOXOXOXOXOX",
"  8 8 8 8 8 8 8 8 8 8 8 8 8 8 8 8 8 8 8 8 8 8 8 8 8 8 O D D D D D D D D D D D D D D D D D D   C 8 8 8 8 8 8 8 8 8 8 8 8 8 8 8 8 8 8 8 8 8 8 8 8 8 8   OXOXOXOXOXOXOXOXOXOXOXOXOXOXOXOXOX",
"  9 9 9 9 9 9 9 9 9 e [ s...................[ [ [ [ ) > D D D D D D D D D D D D D D D D D D   N.p.p.p.p.p.p.p.p.p.p.p.p.p.p.h.[ e 9 9 9 9 9 9 9 9 9   OXOXOXOXOXOXOXOXOXOXOXOXOXOXOXOXOX",
"  > > > > > > > > 8 9 Y e.............[ [ [ [ [ ) ) ) > D D J D D J D J J J D J J D J D J D   A.s.s.s.s.s.s.s.s.s.s.s.s.s.p.k./ 8 > > > > > > > > >   OXOXOXOXOXOXOXOXOXOXOXOXOXOXOXOXOX",
"  > > > > > > > 8 9 D ..[ ..[ [ [ [ ) ) ) ) ) ) / / / > J J J J J J J J J J J J J J J J J J   A.s.s.s.s.s.s.s.s.s.s.s.p.p.p.s.e.e 8 > > > > > > > >   OXOXOXOXOXOXOXOXOXOXOXOXOXOXOXOXOX",
"  y y y y y y y y Y ..e./ ) ) ) / / / / / Y Y Y Y Y J > J J J D J D J D D J J D D J J D D J   A.p.p.p.p.p.p.p.p.p.p.u.u.u.u.0.h.0.D y y y y y y y y   OXOXOXOXOXOXOXOXOXOXOXOXOXOXOXOXOX",
"  g.g.g.g.g.g.g.h.k...Y / Y sXuX% J sXuX% J sXuX% J D > J D D J J J D J J J D J J J D J J D   c.u.kXpX> u.u.jX> e.jX> e.jX> jXuX8 F.k.g.g.g.g.g.g.g.  OXOXOXOXOXOXOXOXOXOXOXOXOXOXOXOXOX",
"  / / / Y / Y Y Y Y Y J J J sX% sXO sX% D D pX% sX% D > D J D D D D D J D D J D D J D D D D   h.t.jX- jX- jX> jX> jXuX> jX> fX- jX> [ [ [ ) ) ) ) /   OXOXOXOXOXOXOXOXOXOXOXOXOXOXOXOXOX",
"  ) Y J J J J J D D D D D C sX% pXO pXuXO C pXO pXO D > D D D D D D D D D D D D D D D D D D   s.t.jX> jX> jX% fX% sX% sXuX% sX% sX% ) / / / / Y / /   OXOXOXOXOXOXOXOXOXOXOXOXOXOXOXOXOX",
"  / Y D D C C C C C C C C y pXuXO y pXO y C pXuX% J J > D D D D D D D D D D D D D D D D D C   p.t.sXuX> | sXuXuX% sX% Y sX% sX% sX% Y Y Y Y J J Y Y   OXOXOXOXOXOXOXOXOXOXOXOXOXOXOXOXOX",
"  Y Y y y y y e e e e e e y pXO pXO pXuXuXO pX% J J J 8 D D D D D D C D D C D C D C D D C C   u.} sX% sX> sX% sX% sXO D sX% sXuX% D sX% D D D D J Y   OXOXOXOXOXOXOXOXOXOXOXOXOXOXOXOXOX",
"  0.Y J D y e 9 9 9 9 e 9 9 8 8 8 9 9 9 9 9 9 9 J J J 8 C D C C C C C C C C C C C C C C C C   e.t.| 7.3.) ( L C j y C C C C y C C C C C C C C D Y /   OXOXOXOXOXOXOXOXOXOXOXOXOXOXOXOXOX",
"  s.h.[ C C C 9 8 8 > > 8 8 > > 8 > > % > 9 e e e Y Y > D D D D D C C C C C C C C C C C y y   0.N.oXf.3.7.Y Y K J D D C y D C C y C y y C D J Y ) /   OXOXOXOXOXOXOXOXOXOXOXOXOXOXOXOXOX",
"                                                        D C D C D C D D C D C C C C C C C C                                                           OXOXOXOXOXOXOXOXOXOXOXOXOXOXOXOXOX",
"                                                        y C y C y C C y C y C C y y C y C y   O                                                       OXOXOXOXOXOXOXOXOXOXOXOXOXOXOXOXOX",
"                                                        D C C D C D D D C D D D C D D D D C                                                           OXOXOXOXOXOXOXOXOXOXOXOXOXOXOXOXOX",
"              O     O     O       O   O O   O     O     D D D D D D C D D D C D D D C D D D             O         O   O O   O   O         O     O     OXOXOXOXOXOXOXOXOXOXOXOXOXOXOXOXOX",
"      O O O O O O O O O O O O O O O O O O O O O O O     D D D D D D D D D D D D D D D D D D           O O O O % % % % % O O O O O O O O % O O O O     OXOXOXOXOXOXOXOXOXOXOXOXOXOXOXOXOX",
"    O % % > > > > > > D [ J J J J J J D D D D D D C 9   J D J J J J J D J J D J J J J D J J   D D y D Y / ) ) ) ) ) ) ) ) ) e.D > > > % > > > > > %   OXOXOXOXOXOXOXOXOXOXOXOXOXOXOXOXOX",
"  O O % % > % > > > 8 D [ ) ) / / / / / / / / Y Y D y O J J J J J J J J J J J J J J J J J J   Y / Y ) ..e.e.e.u.e.u.e.e.e.e.s.J 8 > > > % > > > % %   OXOXOXOXOXOXOXOXOXOXOXOXOXOXOXOXOX",
"  O % % > > > > > 9 C [ [ [ ) ) ) ) ) ) ) / / / Y J y O J J D J D J J D J D J D D J J D D J   / ) ) ..u.p.p.p.p.p.p.p.p.p.p.p.0.e > > > > > > > > %   OXOXOXOXOXOXOXOXOXOXOXOXOXOXOXOXOX",
"  % 8 9 e y y y C Y ..0./ ) ) ) / / / / / Y Y Y J D y O D J J J D J D J J J D J D J D J J D   / ) ) 0.u.p.p.p.p.p.u.u.u.u.u.0.h.0.J y y y y y e e 8   OXOXOXOXOXOXOXOXOXOXOXOXOXOXOXOXOX",
"  / ..p.s.g.g.g.h.k...Y / Y Y Y Y Y Y J J J J J D C e O D D D D D J D D D J D J D J D D D D   J / / 0.e.u.u.u.e.u.e.e.e.e.e.0...p.F.k.g.g.g.g.g.p.0.  OXOXOXOXOXOXOXOXOXOXOXOXOXOXOXOXOX",
"  9 C J Y Y Y Y Y Y Y / / / / F.F./ / F.F./ / F.F.C 9 O D D D D D D D D D D D D D D D D A A   C I.P.[ [ [ P.[ [ P.[ [ P.[ P.P.[ [ [ [ [ [ ) ) / Y C   OXOXOXOXOXOXOXOXOXOXOXOXOXOXOXOXOX",
"  9 y C J J J D D D D D D D D A.J A.J N.D D D F.C N.e O D D D D D D D D D D D D D D D A A A   e J.) J.) J.) J.) J.J./ J.) J.) J.) ) ) / / / / Y J y   OXOXOXOXOXOXOXOXOXOXOXOXOXOXOXOXOX",
"  9 y y C C C C C C C C C C C N.C N.C N.N.D C V.D c.e O D D C D D D D C D D D C A A A A A C   j S.Y F.Y F.Y F.Y F.Y F.F.Y F.Y F.Y Y Y Y Y Y J D D y   OXOXOXOXOXOXOXOXOXOXOXOXOXOXOXOXOX",
"  8 y e y y y e e e e e e e e n.A.G H A.H D G B.N.e e O C D D C C C C C C C C C C C C C C C   j J.N.D D A.A.N.C N.D D A.D A.D N.D D D D D D D C C y   OXOXOXOXOXOXOXOXOXOXOXOXOXOXOXOXOX",
"  e y C C y e 9 9 9 9 e e e e x.t c.y c.b.n.j c.y M e O C D D D D C C C C C C C C C C p p p   > S.9 c.C c.y N.y c.y y c.y c.c.C C c.C C C C C C D C   OXOXOXOXOXOXOXOXOXOXOXOXOXOXOXOXOX",
"  Y 0.Y C D y 9 8 8 > > > > > > > > > > > > 8 8 8 D y O D C C D D D C D C D C C C C C C C C   = ' 4.E D D C D y e y y y y y y y y y y y C D J Y Y C   OXOXOXOXOXOXOXOXOXOXOXOXOXOXOXOXOX",
"                                                        y C C y y C C y y C C y p p p p p p   o                                                       OXOXOXOXOXOXOXOXOXOXOXOXOXOXOXOXOX",
"  9 9 9 9 9 9 9 9 9 9 9 9 9 9 9 9 9 9 9 9 9 9 9 9 9 9 O D C C D D C D C D D C D A C A A A A   C 9 9 9 9 9 9 9 9 9 9 9 9 9 9 9 9 9 9 9 9 9 9 9 9 9 9   OXOXOXOXOXOXOXOXOXOXOXOXOXOXOXOXOX",
"  8 8 8 8 8 8 8 8 8 8 8 8 8 8 8 8 8 8 8 8 8 8 8 8 8 8 O D D D D D C D D C D D D D D C D D D   C 8 8 8 8 8 8 8 8 8 8 8 8 8 8 8 8 8 8 8 8 8 8 8 8 8 8   OXOXOXOXOXOXOXOXOXOXOXOXOXOXOXOXOX",
"  w B %.%.%.B w 9 9 e [ s...................[ [ [ [ ) > D D D D D D D D D D D D D D D D D D   N.p.p.p.p.p.p.p.p.p.p.p.p.p.p.h.[ e 9 9 w B %.%.%.B w   OXOXOXOXOXOXOXOXOXOXOXOXOXOXOXOXOX",
"  b E.[.[.[.R.b > 8 9 Y e.............[ [ [ [ [ ) ) ) > J D J D J J D J J D J J D J J D J J   A.s.s.s.s.s.s.s.s.s.s.s.s.s.p.k./ 8 > > b E.[.[.[.R.b   OXOXOXOXOXOXOXOXOXOXOXOXOXOXOXOXOX",
"  b R.'._._.~.x 8 9 D ..[ ..[ [ [ ) [ ) ) ) ) ) / / / 8 J J J J J J J J J J J J J J J J J J   A.s.s.s.s.s.s.s.s.s.s.s.p.p.p.s.e.e 8 > b R.'._._.~.x   OXOXOXOXOXOXOXOXOXOXOXOXOXOXOXOXOX",
"  N *.:.:.:.*.N C Y ..e./ ) ) ) / / / / / Y Y Y Y Y J > J J D D J D D J D J J D J D J J D J   A.p.s.p.p.p.p.p.p.p.p.u.u.u.u.0.h.0.J y N *.:.:.:.*.N   OXOXOXOXOXOXOXOXOXOXOXOXOXOXOXOXOX",
"  g.g.g.g.g.g.g.h.k...Y / Y sXuX% J sXuX% J sXuX% J D > J J J J D J J J J D D J J J J D J D   c.u.jXuX> u.u.jX> e.jX> e.jX> jXuX> F.k.g.g.g.g.g.g.g.  OXOXOXOXOXOXOXOXOXOXOXOXOXOXOXOXOX",
"  / / / Y Y Y Y Y Y J J J J sX% sXO sX% D D pX% sX% D > D D D D D J J D D D D J D D D D D D   h.t.jX> fX> fX- jX> jXuX> jX> jX> jX> [ [ [ ) ) ) ) /   OXOXOXOXOXOXOXOXOXOXOXOXOXOXOXOXOX",
"  ) Y J J J J J D D D D D C sX% pXO pXuXO y pXO pXO D > J D D D D D D D D D D D D D D D D D   s.t.jX> fX> fX% sX% sX% sXuX% sX% sX% ) / / / / Y / /   OXOXOXOXOXOXOXOXOXOXOXOXOXOXOXOXOX",
"  / Y D D C C C C C C C C y pXuXO y pXO y C pXuX% J J > D D D D D D D D D D D D D D D C C D   p.t.fXuX> 4.fXuXuX% sX% Y sX% sX% sX% Y Y Y K J J Y Y   OXOXOXOXOXOXOXOXOXOXOXOXOXOXOXOXOX",
"  Y Y y y y y e e e e e y y pXO pXO pXuXuXO pX% J J J 8 C C D D D C C D D C C D C D C D D C   u.} sX% sX> sX% sX% sX% D sX% sXuX% D sX% D D D D J Y   OXOXOXOXOXOXOXOXOXOXOXOXOXOXOXOXOX",
"  0.Y J D y e 9 9 9 9 e 9 9 8 8 8 8 9 9 9 9 9 9 J J J > D D D C C C C C C C C C C C C C C C   e.t.3.w.3.) ( L C y y C C C C y C C C C C C C C D Y /   OXOXOXOXOXOXOXOXOXOXOXOXOXOXOXOXOX",
"  s.h.[ C C C 9 > 8 8 > > 8 > > 8 > > % > 9 e e e Y Y 8 D C C D D D C C C C C C C C C C y C   0.N.H.f.3.7.Y Y K J D D C y D C C y C y y C D J Y ) /   OXOXOXOXOXOXOXOXOXOXOXOXOXOXOXOXOX",
"                                                        D C D C D C C D D C D C C C C C C C                                                           OXOXOXOXOXOXOXOXOXOXOXOXOXOXOXOXOX",
"                                                        C C y C C C C y y C y C y C y C y C                                                           OXOXOXOXOXOXOXOXOXOXOXOXOXOXOXOXOX",
"                                                        C D C D C D D D D D C D D D C D D D                                                           OXOXOXOXOXOXOXOXOXOXOXOXOXOXOXOXOX",
"              O   O   O     O   O     O   O       O     D C D D D C C D C D D C C D D C C D             o o   o o o o   o o o o O   O     O   O       OXOXOXOXOXOXOXOXOXOXOXOXOXOXOXOXOX",
"      O O O O O O O O O O O O O O O O O O O O O O O     D D D D D D D D D D D D D D D D D D         O O O O O % O O % O O % % O O O O O O O O O O     OXOXOXOXOXOXOXOXOXOXOXOXOXOXOXOXOX",
"  $ g k k X.l 5 > > > D [ J J J J J D J D D D D C C 9 O J D J J J J J D J J J J J J J D J J   D D y D Y / ) ) ) ) ) [ ) ) ) e.D > > > 5 l v v v h 4   OXOXOXOXOXOXOXOXOXOXOXOXOXOXOXOXOX",
"  a U.(.[.[.W.l > > 8 D [ ) ) / / / / / / / / Y Y D y O J J J J J J J J J J J J J J J J J J   Y / Y ) ..e.e.u.e.u.e.e.e.e.e.s.J 8 > > l T.].[.[.Y.g   OXOXOXOXOXOXOXOXOXOXOXOXOXOXOXOXOX",
"  g T._._.'.~.x > 9 C [ [ [ ) ) ) ) ) ) / / / / Y J y O J J D J D J J J D J D J D J J J D J   / / ) ..u.p.p.p.p.p.p.p.p.p.p.p.0.e > > x R.'.'.`.!.d   OXOXOXOXOXOXOXOXOXOXOXOXOXOXOXOXOX",
"  4 b &.:.:.*.N C Y ..0./ ) ) ) / / / / / Y Y Y J D e O D J J J J J J J J D J J J J J J J J   / ) ) 0.u.p.p.p.p.p.p.u.u.u.u.0.h.0.J y N *.:.:.:.*.q   OXOXOXOXOXOXOXOXOXOXOXOXOXOXOXOXOX",
"  / ..p.s.g.g.g.h.k...Y / Y Y Y Y Y J J J J J J D C e O D D D D D D D D D D D D D D D D D D   J / / ..e.u.u.u.e.e.e.e.e.e.e.0...p.F.k.g.g.g.g.g.p.0.  OXOXOXOXOXOXOXOXOXOXOXOXOXOXOXOXOX",
"  9 C J Y Y Y Y Y Y Y / / / / F.F./ / F.F./ / F.F.C e O D J D D D D D D D D D D D D D D C D   C I.P.[ [ [ P.[ [ P.[ [ P.[ P.P.[ [ [ [ [ [ ) ) / Y C   OXOXOXOXOXOXOXOXOXOXOXOXOXOXOXOXOX",
"  9 y C D J J D D D D D D D J A.J A.J A.D D D F.C N.e O D D D D D D D D D D D D D D D D D C   e J.) J.) J.) J.) J.J.) J.) J.) J.) ) ) / / / / Y J y   OXOXOXOXOXOXOXOXOXOXOXOXOXOXOXOXOX",
"  9 y y C C C C C C C C C C C N.C N.C N.N.C A V.D k.e O C D D C D C D D C D D C C D C D D C   j S.Y F.Y F.Y F.Y F.Y F.F.Y A.Y F.Y Y Y Y Y Y J J D y   OXOXOXOXOXOXOXOXOXOXOXOXOXOXOXOXOX",
"  8 y e y y y e e e e e e e e n.A.G H A.H G D B.N.e e O D D C D C C C C C C C C C C C C C C   j J.N.D D A.A.c.C N.D D A.D A.D N.D D D D D D D C C y   OXOXOXOXOXOXOXOXOXOXOXOXOXOXOXOXOX",
"  e y C C C e 9 9 9 9 e e e e x.t c.y c.c.n.M c.y M e O D C C D D D C C C C C C C C C y y y   > S.9 c.C c.y N.y c.y y c.y c.c.C C c.C C C C C C D C   OXOXOXOXOXOXOXOXOXOXOXOXOXOXOXOXOX",
"  Y 0./ C D y 9 8 8 > > > > > > > > > > > > 8 8 8 D y O C D D C D C D C D C D C C C C C C C   - ' 4.Y D D C D C e y y y y y y y y y y y C D J Y Y C   OXOXOXOXOXOXOXOXOXOXOXOXOXOXOXOXOX",
"OXOXOXOXOXOXOXOXOXOXOXOXOXOXOXOXOXOXOXOXOXOXOXOXOXOXOXOXOXOXOXOXOXOXOXOXOXOXOXOXOXOXOXOXOXOXOXOXOXOXOXOXOXOXOXOXOXOXOXOXOXOXOXOXOXOXOXOXOXOXOXOXOXOXOXOXOXOXOXOXOXOXOXOXOXOXOXOXOXOXOXOX",
"Y Y J e >     > e J Y Y Y Y Y Y Y Y Y Y Y Y Y Y Y J e >     > e J Y Y Y Y Y Y Y Y Y Y Y Y Y Y Y J e >     > e J Y Y Y Y Y Y Y Y Y Y Y Y Y Y Y J e >     > e J Y Y Y Y Y Y Y Y Y Y Y Y Y ",
"Y C >             8 J Y Y Y Y Y Y Y Y Y Y Y Y Y C >             8 J Y Y Y Y Y Y Y Y Y Y Y Y Y C >             8 J Y Y Y Y Y Y Y Y Y Y Y Y Y C >             8 J Y Y Y Y Y Y Y Y Y Y Y Y ",
"J >   / 2XkXkX2XJ   C J Y Y Y Y Y Y Y Y Y Y Y J >   / 2XkXkX2XJ   C J Y Y Y Y Y Y Y Y Y Y Y J >   % / c.c./ %   C J Y Y Y Y Y Y Y Y Y Y Y J >   % / c.c./ %   C J Y Y Y Y Y Y Y Y Y Y Y ",
"e   / rXkXrXwXwX7XD % / / ......Y 0.0.Y Y Y Y e   / rXkXrXwXwX7XD % / / 0.0.Y Y 0./ Y Y Y Y e   % h.4X7X5XI.0.%   / / ......Y 0.0.Y Y Y Y e   % h.5X7X5XI.0.%   / / 0.0.Y Y 0./ Y Y Y Y ",
">   4XkXwXwXwXwXwXJ   u...jXlXwXk.rXrXs.Y Y Y >   2XkXwXwXwXwXwXJ   u...kXrXp...uX0.Y Y Y Y >   / 5X8X0X0X8XI.>   u...jXlXwXk.rXrXs.Y Y Y >   / 5X8X0X0X8XI.8   u...kXrXp...uX0.Y Y Y Y ",
"    kXrXwXwXwXwXwX..  A.[ lXpXh.wXe.h.rX0.Y Y     kXrXwXwXwXwXwX..  A...jXJ.9Xp.jX[ Y Y Y Y     c.7X0XwXwX0X5Xe   A.[ lXpXh.wXe.h.rX0.Y Y O   c.7X0XwXwX0X5Xe   A...jXJ.9Xp.jX[ Y Y Y Y ",
"    kXwXwXwXwXwXqX..% A...jXg.0.wXh.pXlX..Y Y     kXwXwXwXwXwXqX..% A...lXrXu.[ jXp.../ Y Y     c.5X0XwXwX0X4Xe   A...jXg.0.wXh.pXlX..Y Y     c.5X0XqXwX0X4Xe   A...lXrXu.[ jXp.../ Y Y ",
">   2XwXwXwXwXwX4XY C u...jXjXrXk.wXlXjX..Y Y >   2XwXwXwXwXwX4XJ D u.0.tXs.Y ..kXkXuX0.Y Y >   / I.8X0X0X8Xk.> % u...jXjXrXk.wXlXjX..Y Y >   / I.8X0X0X8Xk.8 % u.0.tXs.Y ..kXkXuX0.Y Y ",
"e   J 7XwXwXqX4X[ J k./ / ......Y ....../ Y Y e   J 7XwXwXqX4X[ J k./ / 0.Y Y / ....0./ Y Y e   % 0.I.5X4Xk.e % J / / ......Y ....../ Y Y e   % 0.I.5X4Xk.e % K / / 0.Y Y / ....0./ Y Y ",
"J 8   D J ....J J u.e.J Y Y Y Y Y Y Y Y Y Y Y J 8   C Y ....Y J e.u.J Y Y Y Y Y Y Y Y Y Y Y J 8   % 8 e e 8 % e e.J Y Y Y Y Y Y Y Y Y Y Y J 8   % 8 y y > % e e.J Y Y Y Y Y Y Y Y Y Y Y ",
"Y J C %     % D k.u.J Y Y Y Y Y Y Y Y Y Y Y Y Y J C %     % C k.u.J Y Y Y Y Y Y Y Y Y Y Y Y Y J C         % J e.J Y Y Y Y Y Y Y Y Y Y Y Y Y J C         % J e.J Y Y Y Y Y Y Y Y Y Y Y Y ",
"Y Y J / u.A.A.u./ K Y Y Y Y Y Y Y Y Y Y Y Y Y Y Y J / u.A.A.u./ J Y Y Y Y Y Y Y Y Y Y Y Y Y Y Y Y / u.A.A.u./ K Y Y Y Y Y Y Y Y Y Y Y Y Y Y Y J / u.A.A.u./ J Y Y Y Y Y Y Y Y Y Y Y Y Y ",
"Y Y R *.#.1.1.#.*.E Y Y Y Y Y Y Y Y Y Y Y Y Y Y Y R *.#.1.1.#.*.R Y Y Y Y Y Y Y Y Y Y Y Y Y Y Y R *.#.1.1.#.*.R Y Y Y Y Y Y Y Y Y Y Y Y Y Y Y R *.#.1.1.#.*.R Y Y Y Y Y Y Y Y Y Y Y Y Y ",
"Y T +.2         2 <.W Y Y Y Y Y Y Y Y Y Y Y Y Y T +.2         2 <.W Y Y Y Y Y Y Y Y Y Y Y Y Y T +.#         # <.W Y Y Y Y Y Y Y Y Y Y Y Y Y T +.#         # <.W Y Y Y Y Y Y Y Y Y Y Y Y ",
"R +.# >.|.<X<X|.@.# 9.Q Y Y Y Y Y Y Y Y Y Y Y R +.# >.|.<X<X|.@.# 9.Q Y Y Y Y Y Y Y Y Y Y Y R +.@ 1 O.Q.Q.O., @ 9.Q Y Y Y Y Y Y Y Y Y Y Y R +.@ 1 O.Q.Q.O., @ 9.Q Y Y Y Y Y Y Y Y Y Y Y ",
"*.2 >.,X>X;X;X;X&Xm s 8./ ......Y 0.0.Y Y Y Y *.2 >.,X>X;X;X;X&Xm s 8./ 0.0.Y Y 0./ Y Y Y Y *.# 1 6.{.%X$X}.2.# 1 8./ ......Y 0.0.Y Y Y Y *.# 1 6.{.%X$X}.2.# 1 8./ 0.0.Y Y 0./ Y Y Y Y ",
"#.  |.>X;X;X;X;X;X^.@ XX..jXlXwXk.rXrXs.Y Y Y #.  |.>X;X;X;X;X;X^.@ XX..kXrXp...uX0.Y Y Y Y #.  O.{.*X=X=X*X}.z   XX..jXlXwXk.rXrXs.Y Y Y #.  O.{.*X=X=X*X}.z   XX..kXrXp...uX0.Y Y Y Y ",
"1.  <X;X;X;X;X;X;X#X  1X[ lXpXh.wXe.h.rX0.Y Y 1.  <X;X;X;X;X;X;X#X  1X..jXJ.9Xp.jX[ Y Y Y Y 1.  Q.%X=X:X:X=X$X5.  1X[ lXuXh.wXe.h.rX0.Y Y 1.  Q.%X=X:X:X=X$X5.  1X..jXJ.9Xp.jX[ Y Y Y Y ",
"1.  <X;X;X;X;X;X:X#X% 1X..jXg.0.wXh.pXlX..Y Y 1.  <X;X;X;X;X;X:X#X% 1X..lXrXu.[ jXp.../ Y Y 1.  Q.$X=X:X:X=X@X5.  1X..jXg.0.wXh.pXlX..Y Y 1.  Q.$X=X:X:X=X@X5.  1X..lXrXu.[ jXp.../ Y Y ",
"#.  |.;X;X;X;X;X-X^.! XX..jXjXrXk.wXlXjX..Y Y #.  |.;X;X;X;X;X-X^.! XX0.tXs.Y ..kXkXuX0.Y Y #.  O.}.*X=X=X*X/.z = XX..jXjXrXk.wXlXjX..Y Y #.  O.}.*X=X=X*X/.z = XX0.tXs.Y ..kXkXuX0.Y Y ",
"*.2 @.&X;X;X:X-X+Xo.oX8./ ......Y ....../ Y Y *.2 @.&X;X;X:X-X+Xo.oX8./ 0.Y Y / ....0./ Y Y *.# , 2.}.$X@X/.$.+ ] 8./ ......Y ....../ Y Y *.# , 2.}.$X@X/.$.+ ] 8.Y 0.Y Y / ....0./ Y Y ",
"E <.# m ^.#X#X^.o.z..XQ Y Y Y Y Y Y Y Y Y Y Y R <.# m ^.#X#X^.o.z..XQ Y Y Y Y Y Y Y Y Y Y Y R <.@ # z 5.5.z + A  XQ Y Y Y Y Y Y Y Y Y Y Y R <.@ # z 5.5.z + A  XQ Y Y Y Y Y Y Y Y Y Y Y ",
"Y W 9.s @   % ! oX.X~ Y Y Y Y Y Y Y Y Y Y Y Y Y W 9.s @   % ! oX.X~ Y Y Y Y Y Y Y Y Y Y Y Y Y W 9.1       = ]  X~ Y Y Y Y Y Y Y Y Y Y Y Y Y W 9.1       = ]  X~ Y Y Y Y Y Y Y Y Y Y Y Y ",
"Y Y Q 8.XX1X1XXX8.Q Y Y Y Y Y Y Y Y Y Y Y Y Y Y Y Q 8.XX1X1XXX8.Q Y Y Y Y Y Y Y Y Y Y Y Y Y Y Y Q 8.XX1X1XXX8.Q Y Y Y Y Y Y Y Y Y Y Y Y Y Y Y Q 8.XX1X1XXX8.Q Y Y Y Y Y Y Y Y Y Y Y Y Y "
};
